<svg width="22" height="17" viewBox="0 0 22 17" fill="none" xmlns="http://www.w3.org/2000/svg">
<path d="M12.7298 15.95C12.4633 15.6707 12.3353 15.3334 12.346 14.9378C12.3575 14.5423 12.4966 14.2049 12.7631 13.9257L16.5276 9.98181H1.66948C1.29192 9.98181 0.975213 9.84779 0.71936 9.57975C0.464396 9.31263 0.336914 8.9813 0.336914 8.58575C0.336914 8.1902 0.464396 7.85841 0.71936 7.59036C0.975213 7.32325 1.29192 7.1897 1.66948 7.1897H16.5276L12.7298 3.21093C12.4633 2.93172 12.33 2.59992 12.33 2.21554C12.33 1.83209 12.4633 1.50076 12.7298 1.22155C12.9963 0.94234 13.313 0.802734 13.6799 0.802734C14.0459 0.802734 14.3622 0.94234 14.6287 1.22155L20.7252 7.60851C20.8584 7.74812 20.953 7.89936 21.009 8.06223C21.0641 8.2251 21.0916 8.39961 21.0916 8.58575C21.0916 8.77189 21.0641 8.9464 21.009 9.10927C20.953 9.27215 20.8584 9.42339 20.7252 9.56299L14.5954 15.9849C14.3511 16.2408 14.0459 16.3688 13.6799 16.3688C13.313 16.3688 12.9963 16.2292 12.7298 15.95V15.95Z" fill="black"/>
</svg>
